<svg width="204" height="73" viewBox="0 0 204 73" fill="none" xmlns="http://www.w3.org/2000/svg">
<path d="M2.16273 1.01855H6.35653V4.75293H9.34674V7.73289H6.33773V13.8625C6.33773 15.1639 6.75147 15.4091 8.14313 15.4091H9.32793V18.4456H6.67624C3.2911 18.4456 2.16273 17.7855 2.16273 14.5981V7.73289H0V4.75293H2.16273V1.01855Z" fill="white"/>
<path d="M24.0155 14.1641C22.793 17.3893 19.9345 18.8038 17.2076 18.8038C12.7693 18.8038 9.72266 16.1068 9.72266 11.5425C9.72266 7.1669 13.0514 4.35669 17.0383 4.35669C21.5894 4.35669 24.354 7.7893 24.0719 12.6742H13.9353C14.0669 14.6357 15.5526 15.5221 17.0759 15.5221C18.6745 15.5221 19.6712 14.9563 20.1414 14.1453H24.0155V14.1641ZM13.9917 10.128H19.9157C19.8405 8.39283 18.6368 7.56297 17.0383 7.56297C15.5338 7.56297 14.2174 8.31739 13.9917 10.128Z" fill="white"/>
<path d="M38.44 9.76983H34.5283C34.1522 8.16669 33.1555 7.60088 31.9143 7.60088C30.4098 7.60088 28.9429 8.61934 28.9429 11.5427C28.9429 14.5227 30.4098 15.5223 31.9143 15.5223C33.4564 15.5223 34.3967 14.7113 34.6976 13.4099H38.6093C37.669 17.4838 34.3967 18.7851 31.651 18.7851C27.1563 18.7851 24.6738 15.8806 24.6738 11.5239C24.6738 7.16708 27.5136 4.33801 31.651 4.33801C34.5095 4.35687 37.6314 5.65825 38.44 9.76983Z" fill="white"/>
<path d="M43.8005 6.56345C44.4023 5.54498 45.888 4.45107 48.0319 4.45107C51.5299 4.45107 52.6207 6.50687 52.6207 10.2224V18.4455H48.4269V11.2786C48.4269 9.31708 48.3704 7.71394 46.3394 7.71394C44.5339 7.71394 43.7817 8.88329 43.7817 11.4295V18.4644H39.5879V0H43.7817V6.56345H43.8005Z" fill="white"/>
<path d="M62.7573 8.78902C62.4752 7.77056 61.4032 7.46879 60.0868 7.46879C58.6387 7.46879 57.9052 7.80828 57.9052 8.48726C57.9052 9.12851 58.3942 9.48686 59.579 9.71319L62.1179 10.1658C65.3902 10.7694 66.9699 11.7501 66.9699 14.1643C66.9699 17.2385 64.1489 18.8039 60.3689 18.8039C56.7393 18.8039 54.144 17.2574 53.6738 14.0134H57.5479C57.9241 15.3336 58.9772 15.7485 60.4253 15.7485C61.9298 15.7485 62.9641 15.3336 62.9641 14.5226C62.9641 13.9191 62.4376 13.523 60.839 13.2401L58.3942 12.8252C55.7613 12.3914 53.9559 11.0711 53.9559 8.61928C53.9559 5.90337 56.8333 4.39453 60.1996 4.39453C63.3215 4.39453 66.1424 5.63932 66.669 8.77016H62.7573V8.78902Z" fill="white"/>
<path d="M68.9069 1.01855H73.1007V4.75293H76.0909V7.73289H73.1007V13.8625C73.1007 15.1639 73.5144 15.4091 74.9061 15.4091H76.0909V18.4456H73.4204C70.0352 18.4456 68.9069 17.7855 68.9069 14.5981V7.73289H66.7441V4.75293H68.9069V1.01855Z" fill="white"/>
<path d="M85.625 9.37376C85.625 7.75176 84.8351 7.18595 83.3118 7.18595C81.9577 7.18595 81.055 7.86492 80.867 9.20402H76.9553C77.1621 6.63899 79.5881 4.33801 83.6503 4.33801C87.5808 4.33801 89.8188 5.94115 89.7436 10.0905L89.6871 13.0704V14.5038C89.6871 16.0127 89.7812 17.6347 89.988 18.4834H85.8695L85.813 16.8237C84.7975 18.2759 83.1801 18.804 81.2243 18.804C78.629 18.804 76.5039 17.2763 76.5039 14.7867C76.5039 11.4296 80.284 10.3356 85.5874 9.92071V9.37376H85.625ZM85.7378 12.3726C82.8228 12.6555 80.867 12.9573 80.867 14.4661C80.867 15.3525 81.7133 15.9372 82.804 15.9372C84.4778 15.9372 85.7566 15.2205 85.7566 12.7121V12.3726H85.7378Z" fill="white"/>
<path d="M99.8244 8.78901C99.3354 8.71357 99.0721 8.71357 98.6772 8.71357C96.6461 8.71357 95.6118 9.44913 95.6118 11.5992V18.4644H91.418V4.75287H95.4613V7.35562C96.1007 5.73362 97.2291 4.73401 99.185 4.65857H99.4859C99.6175 4.65857 99.7115 4.65857 99.8244 4.67743V8.78901Z" fill="white"/>
<path d="M108.831 8.78902C108.549 7.77056 107.477 7.46879 106.161 7.46879C104.713 7.46879 103.979 7.80828 103.979 8.48726C103.979 9.12851 104.468 9.48686 105.653 9.71319L108.192 10.1658C111.464 10.7694 113.044 11.7501 113.044 14.1643C113.044 17.2385 110.223 18.8039 106.443 18.8039C102.813 18.8039 100.218 17.2574 99.748 14.0134H103.641C104.017 15.3336 105.07 15.7485 106.518 15.7485C108.023 15.7485 109.057 15.3336 109.057 14.5226C109.057 13.9191 108.531 13.523 106.932 13.2401L104.487 12.8252C101.854 12.3914 100.049 11.0711 100.049 8.61928C100.049 5.90337 102.926 4.39453 106.293 4.39453C109.414 4.39453 112.235 5.63932 112.762 8.77016H108.831V8.78902Z" fill="white"/>
<path d="M113.008 21.9913V18.4644H124.31V22.0101H113.008V21.9913Z" fill="white"/>
<path d="M11.3778 31.7133C10.9453 30.3176 9.61002 29.5443 7.7482 29.5443C6.05563 29.5443 4.83322 30.1856 4.83322 31.3361C4.83322 32.2602 5.67951 32.9203 6.95833 33.2032L9.47838 33.7125C12.4498 34.316 16.211 35.2402 16.211 39.1066C16.211 42.973 12.3557 45.1608 8.50045 45.1608C3.70484 45.1608 0.695834 42.8787 0 38.8237H4.32545C4.81442 40.7663 6.33773 41.6527 8.59448 41.6527C10.099 41.6527 11.7351 41.1624 11.7351 39.6347C11.7351 38.4465 10.3435 37.8618 8.31239 37.428L6.07444 36.9753C3.08423 36.3718 0.35732 34.9195 0.35732 31.6001C0.35732 27.828 4.40068 26.074 7.99268 26.074C11.5659 26.074 15.045 27.6583 15.6657 31.7321H11.3778V31.7133Z" fill="white"/>
<path d="M17.847 27.3942H22.0409V31.1285H25.0311V34.1085H22.0409V40.2382C22.0409 41.5395 22.4546 41.7847 23.8463 41.7847H25.0311V44.8213H22.3794C18.9942 44.8213 17.8659 44.1611 17.8659 40.9737V34.1085H15.7031V31.1285H17.8659V27.3942H17.847Z" fill="white"/>
<path d="M34.584 35.7494C34.584 34.1274 33.7941 33.5616 32.2708 33.5616C30.9167 33.5616 30.014 34.2405 29.826 35.5796H25.9142C26.1211 33.0146 28.5471 30.7136 32.6093 30.7136C36.5398 30.7136 38.7778 32.3168 38.7025 36.4661L38.6461 39.446V40.8794C38.6461 42.3883 38.7401 44.0103 38.947 44.859H34.8284L34.772 43.1993C33.7565 44.6515 32.1391 45.1796 30.1833 45.1796C27.588 45.1796 25.4629 43.6519 25.4629 41.1623C25.4629 37.8052 29.243 36.7113 34.5463 36.2963V35.7494H34.584ZM34.678 38.7482C31.763 39.0311 29.8071 39.3329 29.8071 40.8417C29.8071 41.7281 30.6534 42.3128 31.7442 42.3128C33.418 42.3128 34.6968 41.5961 34.6968 39.0877V38.7482H34.678Z" fill="white"/>
<path d="M48.7834 35.1647C48.2944 35.0893 48.0311 35.0893 47.6362 35.0893C45.6051 35.0893 44.5708 35.8249 44.5708 37.975V44.8402H40.377V31.1475H44.4203V33.7314C45.0597 32.1093 46.1881 31.1097 48.144 31.0343H48.4449C48.5765 31.0343 48.6705 31.0343 48.7834 31.0532V35.1647Z" fill="white"/>
<path d="M51.7233 27.3942H55.9171V31.1285H58.9073V34.1085H55.9171V40.2382C55.9171 41.5395 56.3308 41.7847 57.7225 41.7847H58.9073V44.8213H56.2368C52.8517 44.8213 51.7233 44.1611 51.7233 40.9737V34.1085H49.5605V31.1285H51.7233V27.3942Z" fill="white"/>
<path d="M68.0769 42.9163C67.2769 44.2742 66.2814 45.1607 64.2903 45.1607C60.8592 45.1607 59.8281 43.1049 59.8281 39.3894V31.1473H63.7925V38.352C63.7925 40.3135 63.8458 41.9167 65.7658 41.9167C67.4725 41.9167 68.0947 40.9171 68.0947 38.3709V31.1473H72.0591V44.84H68.0947V42.9163H68.0769Z" fill="white"/>
<path d="M78.936 32.9957C79.8199 31.4869 81.6441 30.8268 83.1298 30.8268C86.6654 30.8268 89.1478 33.505 89.1478 37.9749C89.1478 42.4448 86.6654 45.1607 83.1298 45.1607C81.6629 45.1607 79.8387 44.5006 78.936 42.9918V49.2723H74.7422V31.1097H78.936V32.9957ZM78.7479 37.9938C78.7479 40.8228 80.1208 41.9167 81.7758 41.9167C83.4307 41.9167 84.8224 40.5399 84.8224 37.9938C84.8224 35.4476 83.4307 34.0896 81.7758 34.0896C80.102 34.0896 78.7479 35.1647 78.7479 37.9938Z" fill="white"/>
<path d="M109.797 39.182L112.111 26.3757H116.436L112.28 44.8401H107.597L104.814 31.8264L102.049 44.8401H97.404L93.1914 26.3757H97.5921L100.112 39.1254L102.595 26.3757H107.089L109.797 39.182Z" fill="white"/>
<path d="M129.639 40.5399C128.416 43.765 125.558 45.1795 122.831 45.1795C118.392 45.1795 115.346 42.4825 115.346 37.9183C115.346 33.5426 118.674 30.7324 122.661 30.7324C127.212 30.7324 129.977 34.165 129.695 39.0499H119.558C119.69 41.0114 121.176 41.8978 122.699 41.8978C124.298 41.8978 125.294 41.332 125.764 40.521H129.639V40.5399ZM119.615 36.5037H125.539C125.464 34.7686 124.26 33.9387 122.661 33.9387C121.157 33.9387 119.84 34.6931 119.615 36.5037Z" fill="white"/>
<path d="M144.59 40.5399C143.367 43.765 140.509 45.1795 137.782 45.1795C133.343 45.1795 130.297 42.4825 130.297 37.9183C130.297 33.5426 133.626 30.7324 137.613 30.7324C142.164 30.7324 144.928 34.165 144.646 39.0499H134.509C134.641 41.0114 136.127 41.8978 137.65 41.8978C139.249 41.8978 140.245 41.332 140.716 40.521H144.59V40.5399ZM134.566 36.5037H140.49C140.415 34.7686 139.211 33.9387 137.613 33.9387C136.108 33.9387 134.792 34.6931 134.566 36.5037Z" fill="white"/>
<path d="M172.92 40.4168C171.697 43.642 168.839 45.0565 166.112 45.0565C161.674 45.0565 158.627 42.3595 158.627 37.7952C158.627 33.4196 161.956 30.6094 165.943 30.6094C170.494 30.6094 173.258 34.042 172.976 38.9268H162.84C162.971 40.8883 164.457 41.7748 165.98 41.7748C167.579 41.7748 168.575 41.209 169.046 40.398H172.92V40.4168ZM162.896 36.3807H168.82C168.745 34.6455 167.541 33.8157 165.943 33.8157C164.438 33.8157 163.122 34.5701 162.896 36.3807Z" fill="white"/>
<path d="M150.024 26.3757V36.3529L154.613 31.1286H159.559L154.688 36.3718L159.972 44.8213H155.064L151.848 39.4272L150.024 41.3887V44.8213H145.83V26.3757H150.024Z" fill="white"/>
<path d="M188.051 44.9165H183.965V36.8254C183.965 35.8577 183.795 35.105 183.455 34.5943C183.114 34.0835 182.433 33.8147 181.469 33.8147C179.341 33.8147 178.291 35.0512 178.291 37.4705V44.9165H174.291V31.046H178.121V32.9814C179.313 31.4492 180.93 30.6697 182.972 30.6697C184.533 30.6697 185.781 31.0998 186.689 31.96C187.597 32.8201 188.051 34.0567 188.051 35.6426V44.9165Z" fill="white"/>
<path d="M204 44.8536H200.285V43.1128C199.35 44.5371 197.919 45.2229 195.992 45.2229C194.038 45.2229 192.47 44.5899 191.314 43.2711C190.158 41.9523 189.58 40.2115 189.58 37.9959C189.58 35.8594 190.13 34.145 191.259 32.8526C192.387 31.5338 193.901 30.9008 195.8 30.9008C196.68 30.9008 197.506 31.059 198.276 31.4283C199.047 31.7712 199.68 32.2723 200.12 32.9317V26.074H204V44.8536ZM200.23 38.0223C200.23 36.7035 199.955 35.7012 199.35 34.9627C198.744 34.2241 197.919 33.8549 196.873 33.8549C195.8 33.8549 194.974 34.2241 194.396 34.9627C193.791 35.7012 193.515 36.7035 193.515 38.0223C193.515 39.3411 193.791 40.3697 194.396 41.1083C195.001 41.8468 195.827 42.2424 196.873 42.2424C197.946 42.2424 198.772 41.8732 199.35 41.1346C199.955 40.3961 200.23 39.3675 200.23 38.0223Z" fill="white"/>
<path d="M3.91942 56.5548V61.7397H8.46386C9.36667 61.7397 10.0438 61.635 10.4952 61.4255C11.2938 61.0589 11.6931 60.3344 11.6931 59.252C11.6931 58.0824 11.3068 57.2968 10.5342 56.8952C10.1002 56.6683 9.44914 56.5548 8.58105 56.5548H3.91942ZM9.41442 53.2029C10.76 53.2291 11.793 53.395 12.5135 53.7005C13.2427 54.006 13.859 54.4555 14.3625 55.0491C14.7792 55.5379 15.1091 56.0791 15.3521 56.6726C15.5952 57.2662 15.7167 57.9427 15.7167 58.7021C15.7167 59.6186 15.4867 60.5221 15.0266 61.4124C14.5665 62.294 13.8069 62.9181 12.7479 63.2848C13.6333 63.6426 14.2583 64.1533 14.6229 64.8167C14.9962 65.4713 15.1829 66.4752 15.1829 67.8281V69.1244C15.1829 70.006 15.2176 70.6039 15.287 70.9181C15.3912 71.4157 15.6343 71.7823 16.0162 72.018V72.5024H11.602C11.4805 72.0747 11.3937 71.7299 11.3416 71.4681C11.2374 70.9269 11.181 70.3726 11.1723 69.8052L11.1463 68.0114C11.1289 66.7807 10.9032 65.9602 10.4691 65.5499C10.0438 65.1396 9.2408 64.9345 8.0602 64.9345H3.91942V72.5024H0V53.2029H9.41442Z" fill="white"/>
<path d="M25.2483 69.8707C26.3335 69.8707 27.1668 69.4822 27.7484 68.7054C28.3301 67.9285 28.6209 66.8243 28.6209 65.3928C28.6209 63.9612 28.3301 62.8614 27.7484 62.0933C27.1668 61.3164 26.3335 60.928 25.2483 60.928C24.1632 60.928 23.3255 61.3164 22.7352 62.0933C22.1536 62.8614 21.8628 63.9612 21.8628 65.3928C21.8628 66.8243 22.1536 67.9285 22.7352 68.7054C23.3255 69.4822 24.1632 69.8707 25.2483 69.8707ZM32.5142 65.3928C32.5142 67.4877 31.9153 69.2815 30.7173 70.7741C29.5193 72.258 27.7007 73 25.2614 73C22.822 73 21.0034 72.258 19.8054 70.7741C18.6075 69.2815 18.0085 67.4877 18.0085 65.3928C18.0085 63.3328 18.6075 61.5477 19.8054 60.0376C21.0034 58.5275 22.822 57.7725 25.2614 57.7725C27.7007 57.7725 29.5193 58.5275 30.7173 60.0376C31.9153 61.5477 32.5142 63.3328 32.5142 65.3928Z" fill="white"/>
<path d="M38.0743 67.946C38.1525 68.6094 38.3217 69.0807 38.5822 69.36C39.0423 69.8576 39.893 70.1064 41.1344 70.1064C41.8635 70.1064 42.4408 69.9972 42.8662 69.779C43.3002 69.5608 43.5173 69.2335 43.5173 68.797C43.5173 68.378 43.3436 68.0594 42.9964 67.8412C42.6492 67.623 41.3601 67.2477 39.1291 66.7152C37.5231 66.3137 36.3903 65.8118 35.7305 65.2095C35.0708 64.6159 34.7409 63.7605 34.7409 62.6432C34.7409 61.3251 35.2531 60.1947 36.2774 59.252C37.3104 58.3006 38.7601 57.8249 40.6265 57.8249C42.3974 57.8249 43.8384 58.1827 44.9496 58.8985C46.0694 59.6055 46.7118 60.8319 46.8768 62.5777H43.1657C43.1136 62.0976 42.979 61.7179 42.762 61.4386C42.354 60.9323 41.6595 60.6792 40.6786 60.6792C39.8713 60.6792 39.294 60.8058 38.9468 61.0589C38.6082 61.312 38.4389 61.6088 38.4389 61.9492C38.4389 62.377 38.6212 62.6868 38.9858 62.8789C39.3504 63.0796 40.6395 63.4244 42.8532 63.9132C44.3289 64.2624 45.4357 64.7905 46.1736 65.4975C46.9028 66.2133 47.2674 67.108 47.2674 68.1816C47.2674 69.5957 46.7422 70.7523 45.6918 71.6514C44.6501 72.5417 43.0355 72.9869 40.8479 72.9869C38.6169 72.9869 36.9675 72.5155 35.8998 71.5728C34.8407 70.6214 34.3112 69.4124 34.3112 67.946H38.0743Z" fill="white"/>
<path d="M57.8537 65.563C57.6194 65.7114 57.3806 65.8336 57.1376 65.9296C56.9032 66.0169 56.5776 66.0998 56.161 66.1784L55.3276 66.3355C54.5463 66.4752 53.9864 66.6454 53.6478 66.8461C53.0749 67.1866 52.7884 67.7147 52.7884 68.4304C52.7884 69.0676 52.9621 69.5303 53.3093 69.8183C53.6652 70.0976 54.0949 70.2373 54.5984 70.2373C55.397 70.2373 56.1306 70.0016 56.799 69.5303C57.4761 69.0589 57.8277 68.1991 57.8537 66.9509V65.563ZM55.601 63.8216C56.2868 63.7343 56.7773 63.6252 57.0725 63.4942C57.602 63.2673 57.8668 62.9138 57.8668 62.4337C57.8668 61.8489 57.6628 61.4473 57.2548 61.2291C56.8554 61.0022 56.2651 60.8887 55.4838 60.8887C54.6071 60.8887 53.9864 61.1069 53.6218 61.5433C53.3614 61.8663 53.1878 62.3028 53.1009 62.8527H49.5201C49.5982 61.6045 49.9454 60.5788 50.5618 59.7758C51.5427 58.5188 53.2268 57.8903 55.6141 57.8903C57.1679 57.8903 58.5482 58.2002 59.7548 58.8199C60.9615 59.4397 61.5648 60.6094 61.5648 62.3289V68.8756C61.5648 69.3295 61.5735 69.8794 61.5909 70.5253C61.6169 71.0142 61.6907 71.3459 61.8122 71.5204C61.9337 71.695 62.116 71.839 62.3591 71.9525V72.5024H58.3225C58.2096 72.2144 58.1315 71.9438 58.0881 71.6906C58.0447 71.4375 58.01 71.1495 57.9839 70.8265C57.4718 71.3851 56.8815 71.8609 56.213 72.2537C55.4144 72.7163 54.5116 72.9476 53.5046 72.9476C52.2198 72.9476 51.1564 72.581 50.3144 71.8478C49.481 71.1058 49.0643 70.0584 49.0643 68.7054C49.0643 66.9509 49.7371 65.6808 51.0826 64.8952C51.8205 64.4675 52.9056 64.162 54.338 63.9787L55.601 63.8216Z" fill="white"/>
<path d="M72.5808 57.8903C72.6503 57.8903 72.7067 57.8947 72.7501 57.9034C72.8022 57.9034 72.9107 57.9078 73.0757 57.9165V61.7397C72.8413 61.7136 72.6329 61.6961 72.4506 61.6874C72.2683 61.6786 72.1208 61.6743 72.0079 61.6743C70.5148 61.6743 69.5122 62.1631 69 63.1407C68.7135 63.6906 68.5703 64.5373 68.5703 65.6808V72.5024H64.8332V58.2307H68.375V60.7185C68.9479 59.767 69.447 59.1167 69.8724 58.7676C70.5669 58.1827 71.4697 57.8903 72.5808 57.8903Z" fill="white"/>
<path d="M79.0785 56.5286H75.3153V53.0851H79.0785V56.5286ZM75.3153 58.2307H79.0785V72.5024H75.3153V58.2307Z" fill="white"/>
<path d="M89.0528 69.8707C90.1379 69.8707 90.9713 69.4822 91.5529 68.7054C92.1345 67.9285 92.4253 66.8243 92.4253 65.3928C92.4253 63.9612 92.1345 62.8614 91.5529 62.0933C90.9713 61.3164 90.1379 60.928 89.0528 60.928C87.9677 60.928 87.13 61.3164 86.5397 62.0933C85.9581 62.8614 85.6673 63.9612 85.6673 65.3928C85.6673 66.8243 85.9581 67.9285 86.5397 68.7054C87.13 69.4822 87.9677 69.8707 89.0528 69.8707ZM96.3187 65.3928C96.3187 67.4877 95.7197 69.2815 94.5218 70.7741C93.3238 72.258 91.5052 73 89.0658 73C86.6265 73 84.8079 72.258 83.6099 70.7741C82.4119 69.2815 81.813 67.4877 81.813 65.3928C81.813 63.3328 82.4119 61.5477 83.6099 60.0376C84.8079 58.5275 86.6265 57.7725 89.0658 57.7725C91.5052 57.7725 93.3238 58.5275 94.5218 60.0376C95.7197 61.5477 96.3187 63.3328 96.3187 65.3928Z" fill="white"/>
</svg>
